# xmcd
#
# Track frame offsets:
#	150
#	15650
#	32555
#	50013
#	68087
#	84680
#	97682
#	114572
#	130858
#	143376
#
# Disc length: 2081 seconds
#
# Revision: 1
# Processed by: cddbd v1.5.2PL0 Copyright (c) Steve Scherf et al.
# Submitted via: audiograbber 1.83.01
#
DISCID=77081f0a
DTITLE=Aaron Lines - Moments That Matter
DYEAR=2007
DGENRE=Canadian Country
TTITLE0=Cheaper To Keep Her
TTITLE1=Moments That Matter
TTITLE2=Somebody's Son
TTITLE3=Let's Get Drunk and Fight
TTITLE4=When We Make Love
TTITLE5=It Broke Off
TTITLE6=Everyday Heroes
TTITLE7=Just Drunk Enough
TTITLE8=Sometimes It's Summertime
TTITLE9=Nothing Like You
EXTD=
EXTT0=
EXTT1=
EXTT2=
EXTT3=
EXTT4=
EXTT5=
EXTT6=
EXTT7=
EXTT8=
EXTT9=
PLAYORDER=
